# xmcd
#
# Track frame offsets: 
#        150
#        15782
#        34341
#        53040
#        74920
#        94360
#        110320
#        129742
#        147524
#        163502
#        178864
#        200778
#        215531
#        237193
#        256649
#
# Disc length: 3649 seconds
#
# Revision: 0
# Processed by: cddbd v1.5.1PL2 Copyright (c) Steve Scherf et al.
# Submitted via: ExactAudioCopy v0.95b3
#
DISCID=de0e3f0f
DTITLE=David Broza - Parking Completo
DYEAR=2004
DGENRE=Blues
TTITLE0=Estuve Aqui
TTITLE1=Abre la Puerta
TTITLE2=En los Aereopuertos
TTITLE3=Una flor en Masada (Ruti)
TTITLE4=Padre Coraje
TTITLE5=Me Voy
TTITLE6=Parking Completo
TTITLE7=Diario de un Espejismo
TTITLE8=Rios
TTITLE9=Me Muero
TTITLE10=Mi princesa de Jade
TTITLE11=Adi mi corazon
TTITLE12=Belibi (Con Sabreen)
TTITLE13=Parking Completo - Bonus
TTITLE14=Me voy - Bonus
EXTD=
EXTT0=
EXTT1=
EXTT2=
EXTT3=
EXTT4=
EXTT5=
EXTT6=
EXTT7=
EXTT8=
EXTT9=
EXTT10=
EXTT11=
EXTT12=
EXTT13=
EXTT14=
PLAYORDER=
